<svg width="1180" height="282" viewBox="0 0 1180 282" fill="none" xmlns="http://www.w3.org/2000/svg">
<path d="M532.533 39.5814C546.461 39.5814 558.724 41.7766 569.321 46.1669C580.07 50.4058 589.381 56.6886 597.253 65.015L578.405 90.2216C571.895 83.409 564.855 78.3374 557.286 75.0068C549.867 71.5249 541.389 69.7839 531.852 69.7839C523.525 69.7839 517.545 71.1464 513.912 73.8714C510.278 76.5964 508.462 79.927 508.462 83.8632C508.462 87.0424 509.9 89.7674 512.776 92.0383C515.804 94.1578 520.649 95.9745 527.31 97.4884L552.517 103.166C567.505 106.648 578.481 111.719 585.445 118.38C592.409 125.041 595.891 133.898 595.891 144.949C595.891 155.547 593.166 164.554 587.715 171.973C582.265 179.239 574.771 184.765 565.234 188.55C555.696 192.183 544.796 194 532.533 194C517.394 194 503.541 191.578 490.976 186.733C478.41 181.737 468.418 175.228 461 167.204L479.848 141.089C485.45 147.599 493.02 153.049 502.557 157.439C512.095 161.678 521.935 163.798 532.079 163.798C547.824 163.798 555.696 159.18 555.696 149.945C555.696 146.766 554.485 144.117 552.063 141.997C549.792 139.726 545.553 137.834 539.346 136.32L511.641 130.189C503.163 128.372 495.593 125.798 488.932 122.468C482.422 119.137 477.275 114.747 473.49 109.297C469.705 103.695 467.813 96.7314 467.813 88.4049C467.813 79.0187 470.386 70.6922 475.534 63.4255C480.681 56.0073 488.099 50.1787 497.788 45.9398C507.477 41.7009 519.059 39.5814 532.533 39.5814Z" fill="white"/>
<path d="M698.882 78.186V105.663H665.046V151.308C665.046 156.758 666.333 160.694 668.907 163.116C671.632 165.387 675.341 166.523 680.034 166.523C683.668 166.523 686.771 166.144 689.345 165.387C691.918 164.479 694.341 163.192 696.612 161.527L700.699 185.371C696.914 187.944 692.07 190.064 686.166 191.729C680.413 193.243 674.584 194 668.68 194C655.66 194 645.365 191.275 637.796 185.825C630.377 180.223 626.593 170.837 626.441 157.666V105.663H606.912V78.186H626.441V52.7524L665.046 42.0793V78.186H698.882Z" fill="white"/>
<path d="M755.092 194C743.586 194 734.2 190.896 726.933 184.689C719.666 178.482 716.033 168.264 716.033 154.033V78.186H754.638V144.949C754.638 152.216 756.076 157.288 758.953 160.164C761.829 163.041 765.917 164.479 771.216 164.479C776.666 164.479 781.283 162.511 785.068 158.575C789.004 154.487 790.972 147.977 790.972 139.045V78.186H829.577V191.729H795.06L793.924 170.383C790.291 178.407 785.219 184.387 778.709 188.323C772.2 192.108 764.327 194 755.092 194Z" fill="white"/>
<path d="M899.098 194C885.019 194 873.664 188.853 865.035 178.558C856.557 168.264 852.318 153.881 852.318 135.412C852.318 122.695 854.286 111.946 858.222 103.166C862.31 94.2335 867.912 87.4966 875.027 82.9549C882.294 78.2617 890.62 75.9152 900.007 75.9152C908.031 75.9152 914.843 77.8833 920.445 81.8194C926.198 85.7556 930.512 90.9786 933.389 97.4884V30.0438H971.994V191.729H937.476L936.114 169.475C932.935 177.044 928.09 183.024 921.58 187.415C915.222 191.805 907.728 194 899.098 194ZM912.497 165.614C918.855 165.614 923.927 162.965 927.712 157.666C931.496 152.368 933.389 144.571 933.389 134.276C933.389 124.739 931.572 117.396 927.939 112.249C924.305 106.95 919.234 104.301 912.724 104.301C906.062 104.301 900.764 106.799 896.828 111.795C893.043 116.639 891.15 124.36 891.15 134.958C891.15 145.555 893.043 153.352 896.828 158.347C900.612 163.192 905.835 165.614 912.497 165.614Z" fill="white"/>
<path d="M1018.99 65.015C1011.12 65.015 1005.37 63.5768 1001.73 60.7004C998.25 57.6726 996.509 52.9795 996.509 46.6211C996.509 40.1113 998.25 35.4181 1001.73 32.5417C1005.37 29.5139 1011.12 28 1018.99 28C1026.71 28 1032.39 29.5139 1036.02 32.5417C1039.66 35.4181 1041.47 40.1113 1041.47 46.6211C1041.47 52.9795 1039.66 57.6726 1036.02 60.7004C1032.39 63.5768 1026.71 65.015 1018.99 65.015ZM1038.29 78.186V191.729H999.688V78.186H1038.29Z" fill="white"/>
<path d="M1119.82 75.9152C1131.78 75.9152 1142.23 78.2617 1151.16 82.9549C1160.24 87.648 1167.28 94.3849 1172.28 103.166C1177.43 111.946 1180 122.544 1180 134.958C1180 147.372 1177.43 157.969 1172.28 166.75C1167.28 175.53 1160.24 182.267 1151.16 186.96C1142.23 191.653 1131.78 194 1119.82 194C1108.01 194 1097.57 191.653 1088.48 186.96C1079.55 182.267 1072.51 175.53 1067.36 166.75C1062.37 157.969 1059.87 147.372 1059.87 134.958C1059.87 122.544 1062.37 111.946 1067.36 103.166C1072.51 94.3849 1079.55 87.648 1088.48 82.9549C1097.57 78.2617 1108.01 75.9152 1119.82 75.9152ZM1119.82 103.393C1113.16 103.393 1107.94 105.891 1104.15 110.886C1100.52 115.731 1098.7 123.755 1098.7 134.958C1098.7 146.009 1100.52 154.033 1104.15 159.029C1107.94 164.025 1113.16 166.523 1119.82 166.523C1126.63 166.523 1131.86 164.025 1135.49 159.029C1139.28 154.033 1141.17 146.009 1141.17 134.958C1141.17 123.755 1139.28 115.731 1135.49 110.886C1131.86 105.891 1126.63 103.393 1119.82 103.393Z" fill="white"/>
<path d="M311.447 45H441.553V74.1915C428.454 86.9529 418.071 100.193 410.404 113.911C402.896 127.47 397.545 141.667 394.35 156.502C391.315 171.337 389.798 177.389 389.798 193.5H349.065C349.065 169.732 353.218 156.981 361.525 136.403C369.831 115.666 383.089 95.9656 401.299 77.3021H311.447V45Z" fill="#E5DF24"/>
<path d="M116.756 188.28H103.02V222.62H116.756V188.28Z" fill="white"/>
<path d="M133.926 188.28H120.19V222.62H133.926V188.28Z" fill="white"/>
<path d="M147.662 0V48.0761L34.9286 160.81H147.662V164.244H0V177.98H44.6421V281H264.419V116.756L147.662 0ZM68.0916 147.074L147.662 67.503V147.074H68.0916ZM58.3781 267.264V177.98H147.662V267.264H58.3781ZM216.342 267.264H195.738V212.32H216.342V267.264ZM250.682 267.264H230.078V198.584H182.002V267.264H161.398V33.163L250.682 122.447V267.264Z" fill="white"/>
<path d="M365.862 271.896H350.715L347.546 281H340.483L355.254 241.898H361.35L376.147 281H369.058L365.862 271.896ZM352.622 266.417H363.955L358.289 250.197L352.622 266.417ZM403.223 265.934H395.65V281H388.855V241.898H402.605C407.117 241.898 410.599 242.91 413.052 244.933C415.505 246.956 416.731 249.883 416.731 253.715C416.731 256.329 416.096 258.522 414.825 260.294C413.571 262.049 411.817 263.401 409.561 264.35L418.343 280.651V281H411.065L403.223 265.934ZM395.65 260.482H402.632C404.924 260.482 406.714 259.91 408.003 258.764C409.292 257.6 409.937 256.015 409.937 254.01C409.937 251.916 409.337 250.295 408.138 249.149C406.956 248.004 405.184 247.413 402.82 247.377H395.65V260.482ZM461.263 268.271C460.869 272.442 459.33 275.701 456.644 278.046C453.958 280.373 450.387 281.537 445.929 281.537C442.813 281.537 440.065 280.803 437.684 279.335C435.321 277.849 433.495 275.745 432.206 273.024C430.917 270.303 430.245 267.143 430.191 263.544V259.892C430.191 256.203 430.845 252.954 432.152 250.143C433.459 247.332 435.33 245.166 437.765 243.644C440.217 242.122 443.046 241.361 446.251 241.361C450.566 241.361 454.039 242.534 456.671 244.879C459.303 247.225 460.833 250.537 461.263 254.816H454.496C454.173 252.005 453.35 249.982 452.025 248.747C450.718 247.493 448.793 246.867 446.251 246.867C443.297 246.867 441.023 247.95 439.43 250.116C437.854 252.265 437.049 255.425 437.013 259.596V263.061C437.013 267.286 437.765 270.508 439.269 272.729C440.79 274.949 443.01 276.059 445.929 276.059C448.596 276.059 450.602 275.459 451.944 274.259C453.287 273.06 454.138 271.063 454.496 268.271H461.263ZM506.654 281H499.887V263.625H482.404V281H475.609V241.898H482.404V258.173H499.887V241.898H506.654V281ZM530.131 281H523.364V241.898H530.131V281ZM574.18 247.377H561.987V281H555.247V247.377H543.162V241.898H574.18V247.377ZM610.44 263.544H594.38V275.575H613.152V281H587.586V241.898H612.964V247.377H594.38V258.173H610.44V263.544ZM656.771 268.271C656.377 272.442 654.837 275.701 652.152 278.046C649.466 280.373 645.895 281.537 641.437 281.537C638.321 281.537 635.573 280.803 633.192 279.335C630.829 277.849 629.002 275.745 627.713 273.024C626.424 270.303 625.753 267.143 625.699 263.544V259.892C625.699 256.203 626.353 252.954 627.66 250.143C628.967 247.332 630.838 245.166 633.272 243.644C635.725 242.122 638.554 241.361 641.759 241.361C646.074 241.361 649.547 242.534 652.179 244.879C654.811 247.225 656.341 250.537 656.771 254.816H650.003C649.681 252.005 648.858 249.982 647.533 248.747C646.226 247.493 644.301 246.867 641.759 246.867C638.805 246.867 636.531 247.95 634.938 250.116C633.362 252.265 632.556 255.425 632.521 259.596V263.061C632.521 267.286 633.272 270.508 634.776 272.729C636.298 274.949 638.518 276.059 641.437 276.059C644.104 276.059 646.109 275.459 647.452 274.259C648.795 273.06 649.645 271.063 650.003 268.271H656.771ZM698.563 247.377H686.371V281H679.63V247.377H667.545V241.898H698.563V247.377ZM740.571 241.898V268.029C740.571 272.182 739.237 275.477 736.569 277.912C733.92 280.329 730.384 281.537 725.961 281.537C721.486 281.537 717.932 280.347 715.3 277.965C712.668 275.566 711.352 272.245 711.352 268.002V241.898H718.12V268.056C718.12 270.67 718.782 272.666 720.107 274.044C721.432 275.423 723.383 276.112 725.961 276.112C731.189 276.112 733.803 273.355 733.803 267.841V241.898H740.571ZM770.466 265.934H762.893V281H756.099V241.898H769.849C774.36 241.898 777.843 242.91 780.295 244.933C782.748 246.956 783.975 249.883 783.975 253.715C783.975 256.329 783.339 258.522 782.068 260.294C780.815 262.049 779.06 263.401 776.804 264.35L785.586 280.651V281H778.308L770.466 265.934ZM762.893 260.482H769.875C772.167 260.482 773.958 259.91 775.247 258.764C776.536 257.6 777.18 256.015 777.18 254.01C777.18 251.916 776.58 250.295 775.381 249.149C774.199 248.004 772.427 247.413 770.063 247.377H762.893V260.482ZM821.524 263.544H805.464V275.575H824.236V281H798.67V241.898H824.048V247.377H805.464V258.173H821.524V263.544ZM889.801 268.271C889.407 272.442 887.868 275.701 885.182 278.046C882.497 280.373 878.925 281.537 874.467 281.537C871.352 281.537 868.603 280.803 866.222 279.335C863.859 277.849 862.033 275.745 860.744 273.024C859.455 270.303 858.783 267.143 858.729 263.544V259.892C858.729 256.203 859.383 252.954 860.69 250.143C861.997 247.332 863.868 245.166 866.303 243.644C868.756 242.122 871.584 241.361 874.789 241.361C879.104 241.361 882.577 242.534 885.209 244.879C887.841 247.225 889.372 250.537 889.801 254.816H883.034C882.711 252.005 881.888 249.982 880.563 248.747C879.256 247.493 877.331 246.867 874.789 246.867C871.835 246.867 869.561 247.95 867.968 250.116C866.392 252.265 865.587 255.425 865.551 259.596V263.061C865.551 267.286 866.303 270.508 867.807 272.729C869.328 274.949 871.549 276.059 874.467 276.059C877.134 276.059 879.14 275.459 880.482 274.259C881.825 273.06 882.676 271.063 883.034 268.271H889.801ZM935.354 262.47C935.354 266.301 934.691 269.667 933.366 272.567C932.041 275.45 930.144 277.67 927.673 279.228C925.22 280.767 922.391 281.537 919.187 281.537C916.018 281.537 913.189 280.767 910.7 279.228C908.229 277.67 906.314 275.459 904.953 272.594C903.61 269.73 902.93 266.426 902.912 262.685V260.482C902.912 256.669 903.583 253.303 904.926 250.385C906.287 247.466 908.194 245.237 910.646 243.698C913.117 242.14 915.946 241.361 919.133 241.361C922.32 241.361 925.139 242.131 927.592 243.671C930.063 245.193 931.97 247.395 933.312 250.277C934.655 253.142 935.336 256.481 935.354 260.294V262.47ZM928.559 260.429C928.559 256.096 927.736 252.775 926.088 250.465C924.459 248.156 922.141 247.001 919.133 247.001C916.197 247.001 913.896 248.156 912.231 250.465C910.584 252.757 909.742 256.007 909.707 260.214V262.47C909.707 266.767 910.539 270.088 912.204 272.433C913.887 274.778 916.215 275.951 919.187 275.951C922.194 275.951 924.504 274.805 926.115 272.514C927.744 270.222 928.559 266.874 928.559 262.47V260.429ZM959.18 241.898L970.459 271.869L981.711 241.898H990.493V281H983.726V268.109L984.397 250.868L972.849 281H967.988L956.467 250.895L957.139 268.109V281H950.371V241.898H959.18ZM1013.59 266.471V281H1006.8V241.898H1021.76C1026.13 241.898 1029.59 243.035 1032.15 245.309C1034.73 247.583 1036.02 250.591 1036.02 254.333C1036.02 258.164 1034.76 261.145 1032.23 263.275C1029.73 265.406 1026.21 266.471 1021.68 266.471H1013.59ZM1013.59 261.02H1021.76C1024.18 261.02 1026.02 260.456 1027.29 259.328C1028.56 258.182 1029.2 256.535 1029.2 254.386C1029.2 252.274 1028.55 250.591 1027.26 249.337C1025.97 248.066 1024.2 247.413 1021.95 247.377H1013.59V261.02ZM1067.34 271.896H1052.19L1049.02 281H1041.96L1056.73 241.898H1062.83L1077.62 281H1070.53L1067.34 271.896ZM1054.1 266.417H1065.43L1059.76 250.197L1054.1 266.417ZM1121.35 281H1114.55L1097.13 253.258V281H1090.33V241.898H1097.13L1114.61 269.748V241.898H1121.35V281ZM1149.63 260.429L1158.63 241.898H1166.15L1153.04 266.605V281H1146.22V266.605L1133.09 241.898H1140.64L1149.63 260.429Z" fill="white" fill-opacity="0.51"/>
</svg>
